<svg width="17" height="17" viewBox="0 0 17 17" fill="none" xmlns="http://www.w3.org/2000/svg">
<g clip-path="url(#clip0_1143_2618)">
<path d="M8.33844 0.863281C4.03158 0.863281 0.540283 4.35458 0.540283 8.66144C0.540283 12.9683 4.03158 16.4596 8.33844 16.4596C12.6453 16.4596 16.1366 12.9683 16.1366 8.66144C16.1366 4.35458 12.6453 0.863281 8.33844 0.863281ZM11.5105 7.25127C11.5137 7.31788 11.5146 7.38449 11.5146 7.44947C11.5146 9.48024 9.97036 11.8205 7.14516 11.8205C6.31034 11.8219 5.4929 11.5821 4.79109 11.13C4.9105 11.1447 5.03316 11.1503 5.15744 11.1503C5.87714 11.1503 6.53918 10.9058 7.06474 10.4932C6.74446 10.4869 6.43412 10.3808 6.17698 10.1898C5.91983 9.99877 5.72869 9.73227 5.6302 9.42744C5.86021 9.47118 6.09716 9.46201 6.3231 9.40064C5.97547 9.33034 5.66286 9.14198 5.43826 8.86749C5.21367 8.593 5.09092 8.24928 5.09083 7.89462V7.87593C5.29797 7.99047 5.53516 8.06033 5.78698 8.06845C5.46108 7.85151 5.23037 7.51825 5.14204 7.13684C5.05371 6.75543 5.11443 6.35469 5.31178 6.01656C5.69759 6.49095 6.17872 6.87903 6.72403 7.15567C7.26934 7.43231 7.86667 7.59135 8.47734 7.62249C8.3997 7.29295 8.43312 6.94698 8.57239 6.63839C8.71166 6.32979 8.94899 6.07585 9.24747 5.91605C9.54595 5.75625 9.88887 5.69954 10.2229 5.75473C10.5569 5.80993 10.8634 5.97394 11.0946 6.22126C11.4383 6.15325 11.768 6.02717 12.0694 5.84841C11.9548 6.20431 11.7149 6.50653 11.3943 6.6989C11.6988 6.66223 11.9962 6.58037 12.2765 6.45602C12.0706 6.76461 11.8112 7.03393 11.5105 7.25127Z" fill="#00ACEE"/>
</g>
<defs>
<clipPath id="clip0_1143_2618">
<rect width="16.2462" height="16.2462" fill="white" transform="translate(0.215454 0.539062)"/>
</clipPath>
</defs>
</svg>
